<svg xmlns="http://www.w3.org/2000/svg" xmlns:xlink="http://www.w3.org/1999/xlink" aria-hidden="true" role="img" class="iconify iconify--logos" width="31.88" height="32" preserveAspectRatio="xMidYMid meet" viewBox="0 0 256 257"><defs><linearGradient id="IconifyId1813088fe1fbc01fb466" x1="-.828%" x2="57.636%" y1="7.652%" y2="78.411%"><stop offset="0%" stop-color="#41D1FF"></stop><stop offset="100%" stop-color="#BD34FE"></stop></linearGradient><linearGradient id="IconifyId1813088fe1fbc01fb467" x1="43.376%" x2="50.316%" y1="2.242%" y2="89.03%"><stop offset="0%" stop-color="#FFEA83"></stop><stop offset="8.333%" stop-color="#FFDD35"></stop><stop offset="100%" stop-color="#FFA800"></stop></linearGradient></defs><path fill="url(#IconifyId1813088fe1fbc01fb466)" d="M255.153 37.938L134.897 252.976c-2.483 4.44-8.862 4.466-11.382.048L.875 37.958c-2.746-4.814 1.371-10.646 6.827-9.67l120.385 21.517a6.537 6.537 0 007.991-5.795l7.583-121.091c.292-4.666 5.377-7.445 9.433-5.35L255.14 29.12c4.18 2.146 4.858 7.835 1.013 10.817z"></path><path fill="url(#IconifyId1813088fe1fbc01fb467)" d="M185.432.063L96.44 17.501a3.268 3.268 0 00-2.634 3.014l-5.474 92.456a3.268 3.268 0 003.997 3.378l24.777-5.718c2.318-.535 4.413 1.507 3.936 3.838l-7.361 36.047c-.495 2.426 1.782 4.5 4.151 3.78l15.906-4.828c2.372-.72 4.771 1.35 4.275 3.78l-11.644 56.534c-.739 3.584 3.959 5.324 5.918 2.38l66.186-95.81c1.679-2.434-.88-5.54-3.53-4.58l-25.52 9.14c-2.371.85-4.845-1.024-4.368-3.46l15.348-74.586c.477-2.32-1.593-4.372-3.936-3.838l-25.52 5.89c-2.372.546-4.671-1.39-4.151-3.798l11.644-56.534c.52-2.526-1.682-4.81-4.275-3.78z"></path></svg>
